PathFileType	4	(X/Y/Z)	/Users/guillermo/Documents/TESIS/Procesamiento_videos/data/sports2d_raw/Cam1_rep/sujeto01_caml/sujeto01_rep09_camL_Sports2D/sujeto01_rep09_camL_Sports2D_px_person00.trc
DataRate	CameraRate	NumFrames	NumMarkers	Units	OrigDataRate	OrigDataStartFrame	OrigNumFrames
120.0	120.0	5	22	m	120.0	17	68
Frame#	Time	Hip			RHip			RKnee			RAnkle			RBigToe			RSmallToe			RHeel			LHip			LKnee			LAnkle			LBigToe			LSmallToe			LHeel			Neck			Head			Nose			RShoulder			RElbow			RWrist			LShoulder			LElbow			LWrist			
		X1	Y1	Z1	X2	Y2	Z2	X3	Y3	Z3	X4	Y4	Z4	X5	Y5	Z5	X6	Y6	Z6	X7	Y7	Z7	X8	Y8	Z8	X9	Y9	Z9	X10	Y10	Z10	X11	Y11	Z11	X12	Y12	Z12	X13	Y13	Z13	X14	Y14	Z14	X15	Y15	Z15	X16	Y16	Z16	X17	Y17	Z17	X18	Y18	Z18	X19	Y19	Z19	X20	Y20	Z20	X21	Y21	Z21	X22	Y22	Z22
17	0.14166666666666666	905.8817138671875	548.3387145996094	0.0	889.5107116699219	551.4570007324219	0.0	894.9677124023438	616.1614379882812	0.0	898.8655700683594	676.968017578125	0.0	900.4247131347656	694.8981628417969	0.0	890.290283203125	693.3390197753906	0.0	901.2042846679688	683.20458984375	0.0	923.0322875976562	549.8978576660156	0.0	926.1505737304688	613.8227233886719	0.0	928.4892883300781	674.6293029785156	0.0	926.9301452636719	694.8981628417969	0.0	936.2850036621094	692.5594482421875	0.0	926.1505737304688	681.6454467773438	0.0	901.9838562011719	451.6718444824219	0.0	899.6451416015625	409.5749816894531	0.0	898.8655700683594	430.6234130859375	0.0	875.4784240722656	464.924560546875	0.0	866.9031372070312	506.2418518066406	0.0	862.2257080078125	542.8817138671875	0.0	929.2688598632812	463.36541748046875	0.0	940.9624328613281	504.6827087402344	0.0	954.9947204589844	541.3225708007812	0.0
18	0.15	906.037353515625	549.30029296875	0.0	889.7427978515625	552.262939453125	0.0	895.6680908203125	616.7005004882812	0.0	899.3713989257812	678.9160766601562	0.0	900.112060546875	695.9512939453125	0.0	891.22412109375	693.7293090820312	0.0	902.3340454101562	684.8413696289062	0.0	922.3319091796875	550.7816162109375	0.0	924.5538940429688	613.7378540039062	0.0	926.77587890625	676.694091796875	0.0	928.2572021484375	695.9512939453125	0.0	936.4044799804688	692.9886474609375	0.0	923.0725708007812	683.3600463867188	0.0	901.5933837890625	451.532958984375	0.0	900.112060546875	410.055908203125	0.0	897.8900756835938	430.79443359375	0.0	876.410888671875	464.8648681640625	0.0	866.7822875976562	505.60125732421875	0.0	863.0789794921875	542.6343383789062	0.0	928.9978637695312	463.383544921875	0.0	940.8484497070312	504.11993408203125	0.0	954.1803588867188	540.412353515625	0.0
19	0.15833333333333333	905.7097778320312	549.27392578125	0.0	890.2222595214844	551.2940368652344	0.0	896.2825927734375	615.2642211914062	0.0	898.97607421875	674.5208129882812	0.0	899.6494445800781	691.3550720214844	0.0	890.2222595214844	689.3349609375	0.0	900.3228149414062	680.5811462402344	0.0	921.8706665039062	549.27392578125	0.0	923.8907775878906	612.5707397460938	0.0	927.9309997558594	672.5007019042969	0.0	928.6043701171875	693.3751831054688	0.0	936.684814453125	689.3349609375	0.0	924.5641479492188	678.56103515625	0.0	901.6695556640625	451.6352233886719	0.0	900.3228149414062	409.212890625	0.0	897.6293334960938	431.4341125488281	0.0	875.4081115722656	465.1026306152344	0.0	866.654296875	506.17822265625	0.0	863.2874450683594	542.5402221679688	0.0	928.6043701171875	463.08251953125	0.0	941.3984069824219	505.5048522949219	0.0	954.8658142089844	541.1934814453125	0.0
20	0.16666666666666666	905.3527221679688	548.4146118164062	0.0	889.8180541992188	551.0037231445312	0.0	894.9962768554688	613.1423950195312	0.0	898.232666015625	670.7501220703125	0.0	898.232666015625	688.2266235351562	0.0	888.5234985351562	685.6375122070312	0.0	900.1744995117188	677.8701782226562	0.0	922.1819458007812	549.7091674804688	0.0	923.4765014648438	611.8478393554688	0.0	926.712890625	669.45556640625	0.0	928.6547241210938	690.16845703125	0.0	936.4220581054688	686.9320678710938	0.0	924.7710571289062	677.8701782226562	0.0	902.1163330078125	451.97021484375	0.0	899.5272216796875	409.2498779296875	0.0	898.232666015625	431.25732421875	0.0	876.2252197265625	464.915771484375	0.0	867.163330078125	505.69427490234375	0.0	863.2796630859375	543.2363891601562	0.0	928.6547241210938	463.6212158203125	0.0	941.6002807617188	506.341552734375	0.0	954.5458374023438	541.2945556640625	0.0
21	0.175	906.0200500488281	548.6383666992188	0.0	890.1296997070312	551.6651000976562	0.0	893.9131164550781	614.4698181152344	0.0	897.696533203125	671.2210693359375	0.0	896.1831665039062	691.6515197753906	0.0	887.1029663085938	688.6247863769531	0.0	900.7232666015625	678.7879028320312	0.0	922.6670837402344	549.3950500488281	0.0	924.1804504394531	612.1997680664062	0.0	928.7205505371094	669.7077026367188	0.0	926.4505004882812	688.6247863769531	0.0	935.5307006835938	684.8413696289062	0.0	927.2071838378906	677.2745361328125	0.0	902.2366333007812	452.5395812988281	0.0	901.4799499511719	410.9219970703125	0.0	896.9398498535156	432.109130859375	0.0	876.5093994140625	465.4031982421875	0.0	866.6725158691406	506.26409912109375	0.0	862.8890991210938	542.5848999023438	0.0	929.4772338867188	464.6465148925781	0.0	941.5841674804688	506.26409912109375	0.0	950.6643676757812	541.8282165527344	0.0
